<?xml version="1.0" encoding="utf-8"?>
<!-- Generator: Adobe Illustrator 17.0.2, SVG Export Plug-In . SVG Version: 6.00 Build 0)  -->
<!DOCTYPE svg PUBLIC "-//W3C//DTD SVG 1.1//EN" "http://www.w3.org/Graphics/SVG/1.1/DTD/svg11.dtd">
<svg version="1.1" id="Layer_1" xmlns="http://www.w3.org/2000/svg" xmlns:xlink="http://www.w3.org/1999/xlink" x="0px" y="0px"
	 width="285px" height="78px" viewBox="8 111 285 78" enable-background="new 8 111 285 78" xml:space="preserve">
<g>
	<path fill="#71C7D4" d="M32.4,123.8l-0.1-0.1l-18.5-10l-0.3-0.1c-0.3-0.1-0.6-0.2-1-0.2c-1.2,0-2.1,0.9-2.1,1.9v0.1v0.1v20.1v0.1
		v0.1c0,1.1,1,1.9,2.1,1.9c0.3,0,0.6-0.1,0.8-0.2l0.4-0.2l18.5-10l0.2-0.1c0.6-0.4,0.9-1,0.9-1.6C33.3,124.8,33,124.2,32.4,123.8z"
		/>
	<path fill="#CBCF2B" d="M40.6,145l-0.1-0.1L25,136.5l-0.2-0.1c-0.2-0.1-0.5-0.2-0.8-0.2c-1,0-1.8,0.7-1.8,1.6v0.1v0.1v16.8l0,0v0.1
		c0,0.9,0.8,1.6,1.8,1.6c0.2,0,0.5,0,0.7-0.1l0.3-0.2l15.5-8.4l0.1-0.1c0.5-0.3,0.8-0.8,0.8-1.4C41.4,145.8,41.1,145.3,40.6,145z"/>
	<path fill="#F78F35" d="M48.1,131.8L48.1,131.8l-10-5.4l-0.1-0.1c-0.2-0.1-0.3-0.1-0.5-0.1c-0.6,0-1.1,0.5-1.1,1.1l0,0l0,0v10.8
		l0,0l0,0c0,0.6,0.5,1.1,1.1,1.1c0.2,0,0.3,0,0.4-0.1L38,139l10-5.4l0.1-0.1c0.3-0.2,0.5-0.5,0.5-0.9
		C48.6,132.3,48.4,132,48.1,131.8z"/>
	<polygon fill="#CBCF2B" points="277.4,139.4 279.4,139.4 279.4,144.9 280.6,144.9 280.6,139.4 282.6,139.4 282.6,138.3 
		277.4,138.3 	"/>
	<path fill="#CBCF2B" d="M290.1,138.3h-1.8l-1.1,3.3c-0.1,0.5-0.3,1-0.4,1.6l0,0c-0.1-0.7-0.3-1.2-0.4-1.7l-1.1-3.3h-1.9l-0.5,6.6
		h1.2l0.2-3.9c0-0.6,0-1.2,0-1.9h0.1c0.1,0.6,0.3,1.4,0.4,1.9l1.1,3.8h1.3l1.1-3.7c0.2-0.6,0.4-1.4,0.5-2h0.1c0,0.7,0,1.3,0.1,1.9
		l0.2,3.9h1.2L290.1,138.3z"/>
	<path fill="#CBCF2B" d="M220,165.2c-5.1,0-7.3-2.9-7.3-9.7c0-6.9,2.6-10.3,7.8-10.3c4.5,0,6.7,3.9,6.7,10.3
		C227.2,161.6,224.7,165.2,220,165.2z M223.5,137.5c-6.1,0-11,2.6-12.6,7.6c0.3-2.5,2-22,2-22h-11.7v50h8.6c0.1-1.3-0.2-5.5-0.7-7.2
		c1.8,4.5,7.1,8,13.8,8c9.5,0,17-8.3,17-18.4C239.9,144.4,232.6,137.5,223.5,137.5z"/>
	<path fill="#CBCF2B" d="M180,164.7c-2.2,0-3.8-1.2-3.8-3.5c0-2,1.4-4.9,6.8-4.9c0.9,0,1.9,0.1,3.1,0.3
		C185.8,163.2,182.6,164.7,180,164.7z M198.3,148.6c0-8.3-8-11.9-16.5-11.9c-8.6,0-16.3,3.3-16.3,11.3c0,0.5,0,1.1,0.3,2.6h11.5
		c0.1-3.7,1.6-5,4-5c2.9,0,4.9,1.1,4.9,3.9v2.9c-1.7-0.2-3.2-0.3-4.7-0.3c-11.7,0-17.3,4.8-17.3,11c0,6.9,5.9,10.9,12.6,10.9
		c6.3,0,11.5-4.7,12.2-12.1h0.7c-0.2,1-0.3,2.1-0.3,3.7c0,6.7,4.9,7.4,9.7,7.4C198.5,165.8,198.3,155,198.3,148.6z"/>
	<path fill="#CBCF2B" d="M143.4,165.2c-5.1,0-7.3-2.9-7.3-9.7c0-6.9,2.6-10.3,7.8-10.3c4.5,0,6.7,3.9,6.7,10.3
		C150.6,161.6,148.1,165.2,143.4,165.2z M146.9,137.5c-6.1,0-11,2.6-12.6,7.6c0.3-2.5,2.1-22,2.1-22h-11.7v50h8.6
		c0.1-1.3-0.2-5.5-0.7-7.2c1.8,4.5,7.1,8,13.8,8c9.5,0,17-8.3,17-18.4C163.3,144.4,156,137.5,146.9,137.5z"/>
	<path fill="#CBCF2B" d="M262.6,138.4c0,8.3,0,17.2-2.7,23.4c0,0-3.7-12.9-7.7-19.2c-3.5-5.5-10.3-5.4-16.4-4.5l20.3,32.3
		c0,8.2-6.9,12.5-11.1,12.5c-2.5,0-2.9-1.3-2-1.3c3,0,5.8-2.6,5.8-6.4c0-3.5-3.1-6.7-6.8-6.7c-5,0-7.6,3.5-7.6,8.5
		c0,7,5.6,9.9,11.7,9.9c16,0,28.3-20.3,28.3-48.4h-11.8V138.4z"/>
	<path fill="#838386" d="M68.1,163.8c-4.7,0-9.7-3.9-9.7-10.7c0-5.4,3.2-10.3,9.4-10.5c-1.1,1.1-1.7,2.5-1.7,4.2
		c0,4.7,2.9,6.8,7.1,6.8c3.9,0,7.1-2.8,7.1-7c0-6.5-6.7-9.9-13.5-9.9c-9,0-19.5,5.7-19.5,18.7c0,10.1,7.6,18.6,18.1,18.6
		c7.2,0,12.8-2.3,17-8.2l-2.4-6.4C76.3,162.8,71.2,163.8,68.1,163.8z"/>
	<path fill="#838386" d="M108.8,123.1c0,0,1.8,19.6,2.1,22c-1.6-5-6.4-7.6-12.6-7.6c-9.1,0-16.5,6.9-16.5,17.9
		c0,10.1,7.5,18.4,17,18.4c6.7,0,11.9-3.5,13.8-8c-0.5,1.7-0.7,5.8-0.7,7.2h8.6v-50h-11.7V123.1z M101.7,165.2
		c-4.7,0-7.2-3.5-7.2-9.7c0-6.3,2.2-10.3,6.7-10.3c5.1,0,7.8,3.4,7.8,10.3C109.1,162.3,106.9,165.2,101.7,165.2z"/>
</g>
</svg>
